<svg width="450" height="393" viewBox="0 0 450 393" fill="none" xmlns="http://www.w3.org/2000/svg">
<path d="M34.6 0C16.041 0 0.997986 15.043 0.997986 33.602C0.997986 52.157 16.041 67.204 34.6 67.204H415.4C433.959 67.204 449.002 52.161 449.002 33.602C449.002 15.043 433.959 0 415.4 0H34.6ZM34.6 162.4C16.041 162.4 0.997986 177.443 0.997986 196.002C0.997986 214.557 16.041 229.604 34.6 229.604H415.4C433.959 229.604 449.002 214.561 449.002 196.002C449.002 177.443 433.959 162.4 415.4 162.4H34.6ZM34.6 324.8C16.041 324.8 0.997986 339.843 0.997986 358.402C0.997986 376.957 16.041 392.004 34.6 392.004H415.4C433.959 392.004 449.002 376.961 449.002 358.402C449.002 339.843 433.959 324.8 415.4 324.8H34.6Z" fill="#94C11F"/>
</svg>
